<svg xmlns="http://www.w3.org/2000/svg" viewBox="0 0 851.2 850.4"><path fill="#1a6b4a" d="M311.9 357.1c-13.8-10.2-27.7-20.3-41.2-30.9-18.5-14.6-36.2-30.1-52.7-46.9-14.9-15.2-28.6-31.3-39.5-49.7-8.6-14.5-15-29.9-18-46.6-3.7-20.4-2.1-40.3 4.7-59.8 6.4-18.4 15.8-35.2 28.9-49.7 17-18.8 38.3-30.1 63.5-34 17.5-2.7 34.2.2 50.4 6.7 8.5 3.4 16.6 7.4 24.1 12.8 2.1 1.5 2.2 1.5 3.8-.6 3-3.8 5.8-7.8 8.3-12 5.1-8.5 11.8-15.5 19.1-22 14.2-12.6 30.6-20.3 49.4-22.9 34.6-4.9 65.1 4.8 91.7 26.9 23.9 19.9 38.9 45.4 45.3 75.8 2.6 12.4 2.7 25 1.8 37.7-3 39.6-15 76.8-30.4 113-6.9 16.2-14.5 32-22.3 47.8-.5.9-.9 1.9-1.3 2.9-.3.3-.4.6-.3 1-.5 0-.6.4-.5.8 0 0 .2.1.3 0 .2-.3.5-.6.1-1 .7.4.6-.2.7-.5 1-.5 1.4-1.5 2-2.4 16.4-22.5 33.5-44.6 52.2-65.3 17.6-19.5 36.4-37.7 58.1-52.7 15-10.4 31-18.8 48.6-23.9 10.2-3 20.7-4.6 31.4-4.6 14.2 0 28 3 41.1 8.5 18 7.5 34.4 17.4 48.4 31.1 17.2 16.8 28.2 37 31.8 60.9 2.9 19.9-.6 38.8-9.1 56.9-2.7 5.7-6.3 10.8-9.5 16.2-2.7 4.5-2.6 4.4 2 7 19.6 10.8 35.2 25.7 45.9 45.5 5.4 10 8.5 20.8 9.8 32 2.7 23.7-2.4 46-13.3 67-12.4 24.1-30.2 43.1-54.1 56.2-12.2 6.7-25.4 10.5-39.2 12.2-12.7 1.5-25.4 1.7-38.1.9-17.4-1.1-34.4-4.4-51.2-9-25.6-7-50.2-16.9-74.2-28.1-9.1-4.3-18.1-8.7-27.2-13.1-1-.5-1.9-1.2-3.4-1.3 0 1.5 1.1 1.8 1.9 2.4 8.5 6.5 17.2 12.8 25.6 19.4 19.1 14.7 37.2 30.5 54.2 47.7 15.7 15.9 30 32.9 41.5 52.2 8.3 13.9 14.8 28.6 18.4 44.5 5.1 22.8 3 45-6 66.3s-21.7 40.1-39.6 55c-12.5 10.5-26.3 18.5-42.3 22.4-10.1 2.4-20.3 2.7-30.6 1.8-16.3-1.4-31.3-6.4-45.2-14.7-2.8-1.7-5.5-3.6-8.3-5.3-2.7-1.7-2.8-1.6-4.4 1-1.2 1.9-2.2 3.9-3.4 5.8-7.3 12.1-16.2 22.8-27.3 31.6-15.1 11.9-32.2 18.9-51.5 20.4s-37.6-2.1-55.2-9.7c-25.9-11.2-46.6-28.7-61.5-52.8-7.8-12.6-12.5-26.3-14.7-41-2.3-15.3-2.2-30.6-.9-46 2.7-31.5 11.8-61.3 23.4-90.4 8.1-20.3 17.5-40 27.2-59.5.5-1 1.2-1.9 1.2-3.3-1.6.3-1.9 1.5-2.5 2.4-8.1 11.3-16.3 22.5-24.9 33.4-16.8 21.4-35 41.6-55.2 59.8-16.7 15-34.6 28.3-54.9 38.2-13.2 6.4-27.1 11-41.7 12.8-20.8 2.6-40.9-.6-59.8-9.5-21.2-9.9-39.8-23.5-54.3-42.1-9.6-12.3-16.2-26-19-41.5-1.6-8.6-1.6-17.3-1-26 1.2-19 7.7-36.1 18.1-51.9.4-.6.8-1.2 1.3-1.8.4-.5.7-1 1.3-1.8-7-3.8-12.3-9.6-18.5-14.3q-11.4-8.55-20.4-19.5c-10-12.3-15.7-26.6-18.5-42-5.2-28.4.6-54.8 15-79.5 11.3-19.6 26.5-35.4 46-47 13.7-8.1 28.4-13.2 44.2-15.1 15.2-1.9 30.5-1.7 45.7-.1 30.5 3.1 59.5 12.1 87.8 23.4 23.7 9.5 46.6 20.8 69.4 32.4.4.2.8.3 1.2.5 1.6 1.2 3.2 2.3 5.3 2.4v.2h.2l-.3-.3c-1.2-1.5-2.7-2.5-4.4-3.2Zm236.5 142.4c.3.2.6.7 1 .2s-.1-.6-.5-.8c-.3-.4-.9-.9-1.2-.4-.5.6.4.6.7.9ZM353 546.2c.6-.5 1-1.1.8-2.1-1.1.4-1.5 1.2-1.8 2.1 0 .3-.2.6.2.7.5 0 .6-.4.8-.7m-19.6 114.2c-.1 10.3 1.6 22.9 6.1 34.9 12.1 32.7 41.7 55.7 73.5 59.2 20.8 2.3 39.3-2.9 55.3-16.4 9.8-8.3 17.1-18.5 22.7-30 1.8-3.7 4.3-4.6 8.1-3.1 1.9.7 3.6 1.8 5.1 3.1 5.2 4.6 11.2 7.5 17.5 10.2 7.2 3.1 14.7 5.5 22.6 5.9 19.4.8 36.6-5 51.5-17.4 12.4-10.3 20.9-23.3 26.8-38.1 6.3-15.6 8-31.8 5.1-48.4-2.4-13.8-8-26.3-15.6-38-11.6-17.8-25.8-33.4-41.4-47.7-14.1-13-29.2-25-44.7-36.3-16.2-11.8-32.1-24-49.4-34.2-2.7-1.6-5.3-3.5-7.6-5.7-1.4-1.3-2.7-2.7-3.6-4.4-1.5-2.8-.4-5.8 2.5-7.2 1.9-.9 3.7-.7 5.5.2 3.8 1.9 7.6 3.8 11.3 5.7 20.3 10.4 40.2 21.4 60.7 31.4 19.9 9.7 40.3 18.5 61.6 24.6 20.8 5.9 42 9.3 63.7 7.5 10.8-.9 21.2-3.2 31-7.8 31.4-14.6 49.7-39 53.4-73.5 2.3-21.3-4.6-39.9-19.2-55.6-7.8-8.3-17-14.7-27.2-19.6-3.2-1.5-4.6-4.4-3.1-8.1.9-2.2 2.2-4.1 3.7-5.9 1.4-1.8 2.9-3.4 4-5.4 8.3-14.2 13.3-29.2 11.1-46.1-1.7-12.9-5.6-24.7-13.2-35.4-7-9.9-16.4-17.1-26.6-23.3-13.3-8.2-27.8-13.1-43.4-14.1-18-1.1-34.7 3.3-50.2 12.3-20.4 11.8-37.9 27.1-53.9 44.3-14.7 15.8-28 32.7-40.7 50.1-10.3 14.1-21 28-29.5 43.4-1.7 3.1-3.8 5.9-6.1 8.5-1.7 1.9-3.5 3.7-5.9 4.8-2.5 1.2-4.9 1.1-6.5-.5-1.8-1.7-2.3-4.2-1.2-6.7.5-1.2 1.1-2.3 1.7-3.4 10.8-21 21.7-42 32.4-63.1 10-19.8 18.9-40 25.6-61.2 5.6-18 9.4-36.3 9.9-55.2.5-14.9-1.3-29.4-6.8-43.3-10-25.1-28.5-41.4-53.3-51-13.1-5.1-26.7-6.7-40.6-4.2-16.8 3-30.6 11.5-41.9 24.2-5.8 6.5-10.4 13.7-14.2 21.4-1.7 3.5-4 4.3-7.6 3.1q-3.3-1.2-6-3.6c-4.4-3.8-9.4-6.4-14.6-8.9-13-6.1-26.5-8.7-40.8-6.1-18.5 3.4-34.2 11.7-46.2 26.4-7.6 9.3-12.9 19.9-17.2 31-3 8-4.9 16.2-5.6 24.7-1.4 18 2.9 34.7 11.8 50.3 11.2 19.6 25.5 36.7 41.7 52.3s33.8 29.4 52 42.4c17.9 12.9 36 25.5 54 38.3.8.6 1.6 1.1 2.3 1.7 2.3 2.1 2.6 7.2.7 9.6-.7.8-1.6 1.3-2.7 1.6-2 .5-3.8 0-5.5-.9-9.2-4.8-18.5-9.4-27.7-14.2-19.6-10.2-39.2-20.7-59.4-29.7-28.6-12.8-57.9-23-89.5-24.9-9.2-.5-18.5-.5-27.6 1.2-23.4 4.3-42.6 15.8-57.1 34.7-13.5 17.5-20.3 37.3-18.5 59.6 1.4 16.6 8 30.8 19.5 42.8 7.4 7.8 16.2 13.7 25.8 18.4 3.1 1.5 3.9 3.3 3.4 6.7-.3 1.6-.9 3-1.7 4.4-1.2 2.2-2.8 4.3-4.4 6.3-8.7 10.8-12.4 23.5-13.7 37-1.1 11.1 1.6 21.7 5.9 31.9 5.5 12.8 14 23.2 25.1 31.5 17.3 13 36.5 20.5 58.4 20.4 15.3 0 29.8-4.2 43.2-11.6 18-9.9 33.6-23 48-37.5 14.4-14.4 27.3-30.2 39.3-46.7 13.7-18.7 27.2-37.7 40.8-56.5 2.7-3.7 5.4-7.3 8.2-10.9 2.1-2.6 5.1-3.2 7.6-1.7 2.4 1.5 3 4.1 1.6 7.3-.7 1.6-1.6 3.2-2.4 4.9-11.8 23.6-24.2 46.9-35.7 70.7-9.1 18.7-17.4 37.7-23.5 57.7-5.2 17-8.7 34.3-8.8 54.7Zm20.8-116.8v-.2c.1 0 0 0 0 0z"/><path fill="#1a6b4a" d="M311.9 357.1c1.7.8 3.2 1.8 4.4 3.2-2.1-.1-3.7-1.2-5.3-2.4.3-.3.5-.6.8-.8ZM352 546.2c.3-.9.6-1.6 1.8-2.1.2 1-.2 1.5-.8 2.1zm145.1-240c.3.4 0 .7-.1 1h-.3c-.1-.4 0-.7.5-.8Zm51.3 193.3c-.3-.3-1.2-.3-.7-.9.3-.4.9 0 1.2.4zm-50.6-193.8c-.1.3 0 .9-.7.5q-.15-.45.3-.9zm-181.5 54.6.3.3h-.2v-.2Z"/><path fill="#1a6b4a" d="M548.8 499c.3.1.9.3.5.8s-.7 0-1-.2l.5-.5Zm-194.6 44.6-.1-.2h.2z"/></svg>
