<svg xmlns="http://www.w3.org/2000/svg" id="Lager_1" viewBox="0 0 1445 313"><defs><style>.st0{fill:#fff}</style></defs><path d="M337.7 204.5c.6 0 1.2.3 1.7.8l4.4 4.9c-3.4 4-7.6 7.1-12.5 9.3q-7.35 3.3-17.7 3.3c-10.35 0-11.5-1-16.4-3.1s-9.1-5-12.6-8.8-6.2-8.3-8.1-13.6-2.9-11.1-2.9-17.4 1-12.1 3.1-17.4c2-5.3 4.9-9.8 8.6-13.6s8.1-6.7 13.3-8.8 10.9-3.1 17.1-3.1 11.5 1 16 2.9 8.4 4.5 11.9 7.8l-3.7 5.2c-.3.4-.6.7-.9 1-.4.3-.9.4-1.5.4s-1-.2-1.6-.6-1.2-.8-2-1.4c-.8-.5-1.7-1.1-2.8-1.8-1.1-.6-2.3-1.2-3.7-1.8-1.4-.5-3.1-1-5-1.4q-2.85-.6-6.6-.6c-4.5 0-8.6.8-12.3 2.3q-5.55 2.25-9.6 6.6c-2.7 2.8-4.8 6.3-6.3 10.4s-2.3 8.7-2.3 13.8.8 9.9 2.3 14 3.6 7.6 6.1 10.4c2.6 2.8 5.7 5 9.2 6.5 3.6 1.5 7.4 2.2 11.5 2.2s4.7-.1 6.7-.4 3.8-.8 5.5-1.4 3.3-1.4 4.7-2.4c1.5-1 2.9-2.1 4.4-3.4.7-.6 1.3-.9 1.9-.9Zm72.8-66.6v9.2h-40.3V175h32.6v8.9h-32.6v28.6h40.3v9.2h-51.7v-83.9h51.7Zm24.4.4c.5.3 1 .8 1.7 1.6l48.6 63.2c-.1-1-.2-2-.2-3v-62.2h10v83.9h-5.7c-.9 0-1.6-.2-2.3-.5-.6-.3-1.2-.8-1.8-1.6l-48.5-63.2c0 1 .1 1.9.2 2.9v62.4h-10v-83.9h5.9c1 0 1.8.1 2.3.4Zm137.6-.4v9.5h-27.1v74.3H534v-74.3h-27.2v-9.5zm63.6 0v9.2h-40.3V175h32.6v8.9h-32.6v28.6h40.3v9.2h-51.7v-83.9h51.7Zm28.8 48.9v35h-11.3v-83.9h23.7c5.3 0 9.9.5 13.8 1.6s7.1 2.6 9.6 4.7c2.5 2 4.4 4.5 5.6 7.3q1.8 4.35 1.8 9.6c0 5.25-.5 5.7-1.4 8.3s-2.3 4.9-4.1 6.9-3.9 3.8-6.5 5.2q-3.9 2.1-8.7 3.3c1.4.8 2.7 2 3.7 3.6l24.5 33.3h-10.1c-2.1 0-3.6-.8-4.6-2.4l-21.8-30c-.7-.9-1.4-1.6-2.2-2s-2-.6-3.5-.6h-8.6Zm0-8.3h11.9c3.3 0 6.2-.4 8.8-1.2 2.5-.8 4.6-1.9 6.3-3.4s3-3.2 3.8-5.2c.9-2 1.3-4.3 1.3-6.7 0-5-1.6-8.8-4.9-11.3s-8.2-3.8-14.7-3.8H665v31.7Zm107.3-24.7q-.9 1.35-1.8 2.1c-.6.5-1.5.7-2.5.7s-1.9-.3-2.9-.8c-1-.6-2.2-1.2-3.5-1.9s-2.8-1.3-4.5-1.9-3.6-.8-5.7-.8c-3.7 0-6.5.8-8.3 2.4s-2.7 3.7-2.7 6.4.5 3.1 1.6 4.3c1.1 1.1 2.5 2.1 4.3 2.9s3.8 1.6 6.1 2.3 4.6 1.4 7 2.3c2.4.8 4.7 1.8 7 3 2.3 1.1 4.3 2.6 6.1 4.3 1.8 1.8 3.2 3.9 4.3 6.4s1.6 5.6 1.6 9.1-.7 7.6-2 11.1c-1.4 3.4-3.3 6.4-5.9 9s-5.8 4.6-9.6 6-8.1 2.2-13 2.2-5.4-.3-8.1-.8c-2.8-.5-5.4-1.3-8-2.3s-5-2.2-7.3-3.5c-2.3-1.4-4.2-2.9-5.9-4.6l5.9-9.2c.4-.7 1-1.3 1.8-1.7s1.6-.6 2.5-.6 2.4.4 3.5 1.1c1.2.7 2.5 1.6 4 2.5s3.2 1.7 5.2 2.5c2 .7 4.3 1.1 6.9 1.1s6.4-.8 8.4-2.4 3-4.1 3-7.5-.5-3.6-1.6-4.9c-1.1-1.2-2.5-2.3-4.3-3.1s-3.8-1.5-6.1-2.2c-2.3-.6-4.6-1.3-7-2.1s-4.7-1.7-7-2.8-4.3-2.6-6.1-4.4-3.2-4.1-4.3-6.8-1.6-6.1-1.6-10 .6-6.3 1.9-9.4c1.3-3 3.2-5.8 5.7-8.1 2.5-2.4 5.6-4.3 9.2-5.7s7.8-2.1 12.5-2.1 5.2.2 7.6.6 4.8 1 7.1 1.8c2.2.8 4.3 1.8 6.2 2.9s3.7 2.4 5.2 3.8l-4.9 9.2Zm77.8-17.3v15.7h-24v69.6h-19.8v-69.6h-24v-15.7zm43.7 69.7c2.7 0 5-.4 7.1-1.3s3.9-2.1 5.3-3.8q2.1-2.4 3.3-6c.8-2.4 1.1-5 1.1-8v-50.5h19.8v50.5c0 5.2-.8 10-2.5 14.4s-4.1 8.1-7.3 11.3-7 5.6-11.5 7.4-9.6 2.6-15.3 2.6-10.8-.9-15.3-2.6c-4.5-1.8-8.4-4.2-11.5-7.4-3.2-3.2-5.6-6.9-7.3-11.3s-2.5-9.2-2.5-14.4v-50.5h19.8v50.5c0 3 .4 5.7 1.1 8q1.2 3.6 3.3 6c1.4 1.7 3.2 2.9 5.3 3.8s4.5 1.3 7.1 1.3m126.9-27.1c0 6.2-1.1 11.9-3.2 17.1q-3.15 7.8-9 13.5c-3.9 3.8-8.5 6.8-14 8.9-5.4 2.1-11.5 3.2-18.1 3.2h-33.1v-85.3h33.1c6.6 0 12.7 1.1 18.1 3.2s10.1 5.1 14 8.9q5.85 5.7 9 13.5c2.1 5.2 3.2 10.9 3.2 17m-20.2 0c0-4.2-.5-8-1.6-11.4s-2.7-6.3-4.7-8.6c-2-2.4-4.6-4.2-7.5-5.4-3-1.3-6.3-1.9-10.1-1.9h-13.2v54.8h13.2c3.8 0 7.2-.6 10.1-1.9q4.5-1.95 7.5-5.4c2-2.4 3.6-5.2 4.7-8.6s1.6-7.2 1.6-11.5Zm84.6-42.6v15.2h-35v19.9h26.8v14.6H1050v20.3h35v15.2h-54.9v-85.3h54.9Zm23.8.1c.6 0 1.1.2 1.6.4s.9.5 1.3.9.9.9 1.5 1.6l40.5 51.2c-.2-1.6-.3-3.2-.4-4.8 0-1.5-.1-3-.1-4.4v-45.1h17.4v85.3h-10.3c-1.5 0-2.8-.2-3.9-.7s-2.1-1.3-3-2.6l-40.2-50.8c.1 1.5.2 2.9.3 4.4 0 1.4.1 2.8.1 4v45.7h-17.4v-85.3h10.4c.9 0 1.6 0 2.2.1Zm137.9-.1v15.7h-24v69.6h-19.8v-69.6h-24v-15.7zm63.1 0v15.2h-35v19.9h26.8v14.6h-26.8v20.3h35v15.2h-54.9v-85.3h54.9Zm31 53.7v31.6H1321v-85.3h27.7c6.2 0 11.4.6 15.8 1.9s7.9 3 10.7 5.3 4.8 4.9 6 8 1.9 6.4 1.9 10.1-.4 5.4-1.1 7.8c-.7 2.5-1.8 4.7-3.3 6.8s-3.3 4-5.4 5.6-4.6 3-7.3 4c1.3.7 2.6 1.5 3.7 2.5q1.8 1.5 3 3.6l18.1 29.7h-17.9c-3.3 0-5.7-1.2-7.1-3.7l-14.2-24.8c-.6-1.1-1.4-1.9-2.2-2.3-.8-.5-2-.7-3.5-.7h-5Zm0-13.6h8c2.7 0 5-.3 6.9-1s3.4-1.6 4.7-2.8c1.2-1.2 2.1-2.6 2.6-4.2s.8-3.4.8-5.2c0-3.7-1.2-6.7-3.7-8.8-2.4-2.1-6.2-3.2-11.3-3.2h-8v25.3ZM127.2 140.5c-3.4-2.5-6.8-5-10.1-7.6-4.5-3.6-8.9-7.4-12.9-11.5-3.6-3.7-7-7.7-9.6-12.1-2.1-3.5-3.7-7.3-4.4-11.4-.9-5-.5-9.9 1.2-14.6 1.6-4.5 3.9-8.6 7.1-12.1 4.2-4.6 9.4-7.4 15.5-8.3 4.3-.7 8.4 0 12.3 1.6 2.1.8 4.1 1.8 5.9 3.1.5.4.5.4.9-.1.7-.9 1.4-1.9 2-2.9 1.3-2.1 2.9-3.8 4.7-5.4 3.5-3.1 7.5-5 12.1-5.6 8.5-1.2 15.9 1.2 22.4 6.6 5.8 4.9 9.5 11.1 11.1 18.5.6 3 .7 6.1.4 9.2-.7 9.7-3.7 18.8-7.4 27.6-1.7 4-3.5 7.8-5.5 11.7-.1.2-.2.5-.3.7 0 0-.1.1 0 .2-.1 0-.1 0-.1.2 0 0 .1-.1 0-.2.2.1.1 0 .2-.1.2-.1.3-.4.5-.6 4-5.5 8.2-10.9 12.8-16 4.3-4.8 8.9-9.2 14.2-12.9 3.7-2.5 7.6-4.6 11.9-5.8 2.5-.7 5.1-1.1 7.7-1.1 3.5 0 6.8.7 10.1 2.1 4.4 1.8 8.4 4.3 11.8 7.6 4.2 4.1 6.9 9 7.8 14.9.7 4.9-.2 9.5-2.2 13.9-.7 1.4-1.5 2.6-2.3 3.9-.7 1.1-.6 1.1.5 1.7 4.8 2.6 8.6 6.3 11.2 11.1 1.3 2.4 2.1 5.1 2.4 7.8.7 5.8-.6 11.2-3.2 16.4-3 5.9-7.4 10.5-13.2 13.7q-4.5 2.4-9.6 3c-3.1.4-6.2.4-9.3.2-4.2-.3-8.4-1.1-12.5-2.2-6.3-1.7-12.3-4.1-18.1-6.9-2.2-1-4.4-2.1-6.6-3.2-.2-.1-.5-.3-.8-.3 0 .4.3.4.5.6 2.1 1.6 4.2 3.1 6.3 4.7q7.05 5.4 13.2 11.7c3.8 3.9 7.3 8 10.1 12.7 2 3.4 3.6 7 4.5 10.9 1.3 5.6.7 11-1.5 16.2s-5.3 9.8-9.7 13.4c-3.1 2.6-6.4 4.5-10.3 5.5-2.5.6-5 .7-7.5.5-4-.3-7.6-1.6-11.1-3.6-.7-.4-1.3-.9-2-1.3s-.7-.4-1.1.2c-.3.5-.5.9-.8 1.4-1.8 2.9-4 5.6-6.7 7.7-3.7 2.9-7.9 4.6-12.6 5s-9.2-.5-13.5-2.4c-6.3-2.7-11.4-7-15-12.9-1.9-3.1-3.1-6.4-3.6-10-.6-3.7-.5-7.5-.2-11.2.7-7.7 2.9-15 5.7-22.1 2-5 4.3-9.8 6.7-14.5.1-.2.3-.5.3-.8-.4 0-.5.4-.6.6-2 2.8-4 5.5-6.1 8.2-4.1 5.2-8.5 10.2-13.5 14.6-4.1 3.7-8.5 6.9-13.4 9.3-3.2 1.6-6.6 2.7-10.2 3.1-5.1.6-10-.2-14.6-2.3-5.2-2.4-9.7-5.7-13.3-10.3-2.4-3-4-6.4-4.7-10.1-.4-2.1-.4-4.2-.2-6.3.3-4.6 1.9-8.8 4.4-12.7 0-.2.2-.3.3-.4 0-.1.2-.3.3-.4-1.7-.9-3-2.4-4.5-3.5-1.8-1.4-3.5-3-5-4.8-2.4-3-3.8-6.5-4.5-10.3-1.3-6.9.2-13.4 3.7-19.4 2.8-4.8 6.5-8.6 11.3-11.5 3.3-2 6.9-3.2 10.8-3.7 3.7-.5 7.4-.4 11.2 0 7.5.8 14.5 2.9 21.5 5.7 5.8 2.3 11.4 5.1 17 7.9 0 0 .2 0 .3.1.4.3.8.6 1.3.6-.3-.4-.7-.6-1.1-.8Zm57.8 34.8s.1.2.2 0c0-.1 0-.1-.1-.2 0 0-.2-.2-.3 0-.1.1.1.2.2.2m-47.7 11.4c.2-.1.3-.3.2-.5-.3.1-.4.3-.4.5v.2c.1 0 .1-.1.2-.2m-4.8 27.9c0 2.5.4 5.6 1.5 8.5 3 8 10.2 13.6 18 14.5 5.1.6 9.6-.7 13.5-4 2.4-2 4.2-4.5 5.5-7.3.4-.9 1-1.1 2-.8.5.2.9.4 1.3.8 1.3 1.1 2.7 1.8 4.3 2.5 1.8.8 3.6 1.4 5.5 1.4 4.7.2 8.9-1.2 12.6-4.3 3-2.5 5.1-5.7 6.6-9.3 1.5-3.8 1.9-7.8 1.2-11.8-.6-3.4-1.9-6.4-3.8-9.3-2.8-4.3-6.3-8.2-10.1-11.7-3.5-3.2-7.1-6.1-10.9-8.9-4-2.9-7.8-5.9-12.1-8.4-.7-.4-1.3-.9-1.9-1.4-.3-.3-.7-.7-.9-1.1-.4-.7 0-1.4.6-1.8.5-.2.9-.2 1.3 0 .9.5 1.9.9 2.8 1.4 4.9 2.6 9.8 5.2 14.8 7.7 4.9 2.4 9.8 4.5 15.1 6 5.1 1.5 10.3 2.3 15.6 1.8 2.6-.2 5.2-.8 7.6-1.9 7.7-3.6 12.1-9.5 13.1-18 .6-5.2-1.1-9.8-4.7-13.6q-2.85-3-6.6-4.8c-.8-.4-1.1-1.1-.8-2 .2-.5.5-1 .9-1.4.3-.4.7-.8 1-1.3 2-3.5 3.3-7.1 2.7-11.3-.4-3.1-1.4-6-3.2-8.6-1.7-2.4-4-4.2-6.5-5.7-3.3-2-6.8-3.2-10.6-3.4-4.4-.3-8.5.8-12.3 3-5 2.9-9.3 6.6-13.2 10.8-3.6 3.9-6.8 8-9.9 12.3-2.5 3.5-5.1 6.8-7.2 10.6q-.6 1.05-1.5 2.1c-.4.5-.9.9-1.4 1.2-.6.3-1.2.3-1.6-.1s-.6-1-.3-1.6c.1-.3.3-.6.4-.8 2.6-5.1 5.3-10.3 7.9-15.4 2.4-4.8 4.6-9.8 6.2-15 1.4-4.4 2.3-8.9 2.4-13.5.1-3.6-.3-7.2-1.7-10.6-2.4-6.1-7-10.1-13-12.5-3.2-1.2-6.5-1.6-9.9-1-4.1.7-7.5 2.8-10.2 5.9-1.4 1.6-2.5 3.3-3.5 5.2-.4.8-1 1.1-1.8.8q-.75-.3-1.5-.9c-1.1-.9-2.3-1.6-3.6-2.2-3.2-1.5-6.5-2.1-10-1.5-4.5.8-8.4 2.9-11.3 6.4-1.8 2.3-3.2 4.9-4.2 7.6-.7 1.9-1.2 4-1.4 6-.3 4.4.7 8.5 2.9 12.3 2.7 4.8 6.2 9 10.2 12.8s8.3 7.2 12.7 10.4l13.2 9.3c.2.1.4.3.6.4.6.5.6 1.8.2 2.4-.2.2-.4.3-.7.4-.5.1-.9 0-1.3-.2-2.3-1.2-4.5-2.3-6.8-3.5-4.8-2.5-9.6-5.1-14.5-7.3-7-3.1-14.1-5.6-21.9-6.1-2.3-.1-4.5-.1-6.7.3-5.7 1-10.4 3.9-13.9 8.5-3.3 4.3-5 9.1-4.5 14.6.3 4.1 2 7.5 4.8 10.5 1.8 1.9 4 3.3 6.3 4.5.8.4 1 .8.8 1.6 0 .4-.2.7-.4 1.1-.3.5-.7 1-1.1 1.5-2.1 2.6-3 5.8-3.3 9-.3 2.7.4 5.3 1.5 7.8 1.3 3.1 3.4 5.7 6.1 7.7 4.2 3.2 8.9 5 14.3 5 3.7 0 7.3-1 10.6-2.8 4.4-2.4 8.2-5.6 11.7-9.2 3.5-3.5 6.7-7.4 9.6-11.4 3.4-4.6 6.6-9.2 10-13.8.7-.9 1.3-1.8 2-2.7.5-.6 1.2-.8 1.9-.4.6.4.7 1 .4 1.8l-.6 1.2c-2.9 5.8-5.9 11.5-8.7 17.3-2.2 4.6-4.2 9.2-5.7 14.1-1.3 4.2-2.1 8.4-2.1 13.4Zm5.1-28.5" class="st0"/><path d="M127.2 140.5c.4.2.8.4 1.1.8-.5 0-.9-.3-1.3-.6zm9.8 46.2c0-.2.2-.4.4-.5 0 .2 0 .4-.2.5zm35.5-58.6v.2c0-.1 0-.2.1-.2Zm12.5 47.2s-.3 0-.2-.2c0-.1.2 0 .3 0l-.1.1Z" class="st0"/><path d="M172.7 128s0 .2-.2.1v-.2Zm12.4 47.2s.2 0 .1.2c0 .1-.2 0-.2 0l.1-.1Zm-47.5 10.9-.1-.1h.1z" class="st0"/></svg>